<svg xmlns="http://www.w3.org/2000/svg" width="1200" height="800" viewBox="0 0 1200 800">
  <rect width="1200" height="800" fill="#170d1a"/>
  <g transform="translate(260 194)">
    <path d="M177 43c38 42 79 63 122 66v84c-42-3-83-18-122-44v149c0 75-58 127-132 127-53 0-98-26-122-72 18 35 53 58 95 58 58 0 103-40 103-98V130c40 26 81 39 122 41V93c-44-9-81-31-113-66z" fill="#21f0e9"/>
    <path d="M152 16c38 42 79 63 122 66v84c-42-3-83-18-122-44v149c0 75-58 127-132 127-22 0-43-5-61-14 17 19 42 30 70 30 58 0 103-40 103-98V103c40 26 81 39 122 41V66c-44-9-81-31-113-66z" fill="#ff315d"/>
    <path d="M164 24c36 39 74 58 114 61v73c-40-3-76-17-114-41v156c0 68-50 116-116 116-40 0-73-17-94-47 18 18 42 28 70 28 54 0 96-36 96-90V124c36 22 74 34 114 36V92c-43-8-78-29-110-68z" fill="#ffffff"/>
  </g>
  <text x="590" y="468" font-size="178" font-family="Arial, sans-serif" font-weight="700" fill="#ffffff">抖音</text>
</svg>
